/* XPM */
static char *_af0cc17beee4f68b1db25454bf37b60rpgdjAII4JpOUDI2[] = {
/* columns rows colors chars-per-pixel */
"32 32 196 2 ",
"   c #29171E",
".  c #2D1B22",
"X  c #2D1C23",
"o  c #2E1C23",
"O  c #2E1D24",
"+  c #2F1D24",
"@  c #2F1E25",
"#  c #301F26",
"$  c #311F26",
"%  c #301F27",
"&  c #321F26",
"*  c #302027",
"=  c #322027",
"-  c #332027",
";  c #322127",
":  c #322128",
">  c #322129",
",  c #332228",
"<  c #332229",
"1  c #342128",
"2  c #342329",
"3  c #34232A",
"4  c #35242B",
"5  c #36252C",
"6  c #38272C",
"7  c #3C2A2E",
"8  c #432D33",
"9  c #422E34",
"0  c #4C353B",
"q  c #4D363B",
"w  c #4E363B",
"e  c #4E353C",
"r  c #4D373C",
"t  c #4E363C",
"y  c #4F383E",
"u  c #4F393F",
"i  c #50343A",
"p  c #50363C",
"a  c #50363D",
"s  c #50373D",
"d  c #51373D",
"f  c #51373E",
"g  c #51383D",
"h  c #51393D",
"j  c #51383E",
"k  c #50393E",
"l  c #51393E",
"z  c #51393F",
"x  c #52393E",
"c  c #503A3F",
"v  c #513A3F",
"b  c #523A3E",
"n  c #533A3E",
"m  c #523A3F",
"M  c #523B3F",
"N  c #533B3F",
"B  c #513B40",
"V  c #523A40",
"C  c #523B40",
"Z  c #533B40",
"A  c #523C40",
"S  c #523C41",
"D  c #533C41",
"F  c #533D41",
"G  c #533C42",
"H  c #533D42",
"J  c #533E42",
"K  c #533E43",
"L  c #533F43",
"P  c #563D40",
"I  c #543E43",
"U  c #543F43",
"Y  c #553E44",
"T  c #543F44",
"R  c #553F44",
"E  c #543F45",
"W  c #554043",
"Q  c #544044",
"!  c #544144",
"~  c #544145",
"^  c #554145",
"/  c #564045",
"(  c #554245",
")  c #544146",
"_  c #554246",
"`  c #554346",
"'  c #554347",
"]  c #564447",
"[  c #594143",
"{  c #5A4143",
"}  c #5D4444",
"|  c #5C4546",
" . c #564448",
".. c #564548",
"X. c #564449",
"o. c #564549",
"O. c #564649",
"+. c #574649",
"@. c #57464A",
"#. c #57474A",
"$. c #57484B",
"%. c #57494C",
"&. c #5A494C",
"*. c #584A4D",
"=. c #584B4D",
"-. c #5A494E",
";. c #594C4F",
":. c #594D4F",
">. c #5D4D4D",
",. c #594D50",
"<. c #594F51",
"1. c #5A4F51",
"2. c #5A5052",
"3. c #5A5152",
"4. c #5A5153",
"5. c #5B5254",
"6. c #5B5354",
"7. c #5C5455",
"8. c #5C5556",
"9. c #5C5657",
"0. c #5C5758",
"q. c #5D5758",
"w. c #5D5858",
"e. c #5D5959",
"r. c #5D5A5A",
"t. c #5C5A5B",
"y. c #5E5A5B",
"u. c #5E5B5B",
"i. c #5D5B5C",
"p. c #5E5B5C",
"a. c #5E5C5C",
"s. c #5F5C5C",
"d. c #5C5D5F",
"f. c #5F5D5E",
"g. c gray37",
"h. c #5F5E5E",
"j. c #5E5E5F",
"k. c #5E5F5F",
"l. c #5F5F5F",
"z. c #624B4A",
"x. c #624C4B",
"c. c #654D4C",
"v. c #635756",
"b. c #605F5F",
"n. c #68625E",
"m. c #5E5F60",
"M. c #605F60",
"N. c #5F6060",
"B. c #606060",
"V. c #606160",
"C. c #606161",
"Z. c gray38",
"A. c #606261",
"S. c #606262",
"D. c #616262",
"F. c #6D6864",
"G. c #6F6C67",
"H. c #8E7969",
"J. c #927F6C",
"K. c #93816F",
"L. c #9A836D",
"P. c #98836F",
"I. c #948270",
"U. c #968371",
"Y. c #978574",
"T. c #9B8570",
"R. c #9C8671",
"E. c #98887B",
"W. c #988A80",
"Q. c #9C8F82",
"!. c #A39384",
"~. c #B6AB9E",
"^. c #A0A2AC",
"/. c #A3A6B1",
"(. c #A6A8B1",
"). c #A6A8B2",
"_. c #A4AAB9",
"`. c #A4ABBB",
"'. c #A7ACB8",
"]. c #A7ACBA",
"[. c #A7ADBA",
"{. c #A7ADBB",
"}. c #A7ADBC",
"|. c #AAAFBA",
" X c #AAAFBC",
".X c #B8B9BE",
"XX c #C1B7A8",
"oX c #C9BEAD",
"OX c #CABFAD",
"+X c #CABFAE",
"@X c #BBBEC5",
"#X c #BCBFC6",
"$X c #BEC1C7",
"%X c #DCD4C3",
"&X c #DBD4C4",
"*X c #E5DDCB",
/* pixels */
"@ * < < < < < < & < < < < < < < < < < < < < < < < < < < < < 5 3 ",
"% ^.&X%X%X%X%X%X%X&X%X%X%X%X%X%X%X%X%X%X%X%X%X%X%X%X%X%X%X*X~.3 ",
"o Y.|.|. X X X X X X X X X X X X X X X X X X X X X X X X X$X+X< ",
"@ U.'.].].].].].].].].].].].].].].].].].].].].].].].].]._.@XoX< ",
"o U.'.].].].].].].].].].].].].].].].].].].].].].].].].]._.@XoX< ",
"# U.'.].].].].].].].].].].].].].].].].].].].].].].].].]._.@XoX< ",
"o U.'.].].].].].].].].].].].].].].].].].].].].].].].].]._.@XoX< ",
"# U.].].].].].].].].].].].].].].].].].].].].].].].].].]._.@XoX< ",
"o P.'.].].].].].].].].].].].].].].].].].].].].].].].].]._.@XoX< ",
"# P.'.].].].].].].].].].].].].].].].].].].].].].].].].]._.@XoX< ",
"o U.'.].].].].].].].].].].].].].].].].].].].].].].].].]._.@XoX< ",
"X U.'.].].].].].].].].].].].].].].].].].].].].].].].].]._.@XoX< ",
"@ U.].].].].}.].].].}.].].].}.].].].].].}.].].].].].].]._.@XoX< ",
"X U.}. X}.].}.}.}.}.}.}.}.}.}.}.}.}.}.}.}.}.}.}.}.}.}.}.`.@XoX< ",
"% U.(.(.(.(.).).(.(.).).(.(.).).).).(.(.).).).).(.).(.(.(..XXX< ",
"@ P.T.L.T.T.T.T.T.T.T.T.T.T.T.T.T.T.T.T.T.T.T.T.T.T.T.T.P.!.W.7 ",
"@ H.K.U.I.I.K.K.I.I.I.I.I.I.I.I.J.U.J.I.I.I.K.I.I.K.K.K.K.Q.E.5 ",
". B a.m.m.N.a.m.N.a.N.a.N.a.N.a.m.m.m.m.N.a.a.N.k.d.d.m.d.n.} @ ",
". B C.C.p.N.N.C.N.N.N.N.N.N.C.b.C.M.m.M.C.b.C.M.N.C.C.N.n.G.[ 5 ",
". B C.a.' a.N.m.a.a.m.9.3.7.C.C.b.M.p.C.b.C.b.C.N.N.n.m.t.F.N * ",
". C u.m.C.C.n.m.u G 3.] >.G N.N.C.a.Q C.C.M.6.T ] G 9.3.G ! u * ",
"X u C a.M.C.N.a.) Q $.] Q O.N.a.u.C.C.C.b.1.x x x u ) >.<.v.h * ",
"o x O.C.N.u.u.C.C.C.O.! ) ! O.t G C.C.q.#.Q U Q u >.%.O.>.U h # ",
". C p.p.u.x x C.C.k.x x x U x x Q 1.Q Q 6.p.i U u <.3.G 7.&.h # ",
"X u x u x ) ) k.C.u.x x x C Q ! N G 1.%.3.u.G $.x u u G t.>.x * ",
"o u x u N ] Q O.O.Q x O.x 1.k.7.x t x O.] G O.1.] i x x q [ x - ",
"o u ! ! Q O.U G d d U U G G ! ] x w x u.t x d x G x ) ! x | x - ",
"o 0 ! G Q ! G x C C C d u i x 0.x x G a.x G C x ! Q Q w.q x.w - ",
"% 8 x d x ) O.G C C C d #.x d G ] ) 3.7.x C C C O.6.U 6.t c.q < ",
"o 9 U d x x N O.C C x U T G Q 1.w.3.x x x G x C Q Q i x u z.N & ",
"  t N N G G N u U x x G d d C d x x x G G N G G x x G G x O.C % ",
"< T / R T Q Q Q / / Q / / T / Q Q Q Q Q / R T / Q T R T T -.N < "
};
