/* XPM */
static char *_7020bc802ef441adc0daf0f7964022cRWMRUHdIXWKlrqSq[] = {
/* columns rows colors chars-per-pixel */
"32 32 194 2 ",
"   c #3C283B",
".  c #3F2A3B",
"X  c #3F2A3C",
"o  c #3F2C3E",
"O  c #3E2C3F",
"+  c #412C3C",
"@  c #422C3C",
"#  c #432E3C",
"$  c #432E3D",
"%  c #442F3C",
"&  c #452F3D",
"*  c #46303D",
"=  c #47313D",
"-  c #4F3438",
";  c #48323E",
":  c #48333E",
">  c #49333E",
",  c #48333F",
"<  c #4A333E",
"1  c #49343F",
"2  c #4A343E",
"3  c #4B353E",
"4  c #4B343F",
"5  c #4C363E",
"6  c #4D363F",
"7  c #4E383F",
"8  c #4F383F",
"9  c #553735",
"0  c #5D3A33",
"q  c #523B3F",
"w  c #453140",
"e  c #4B3742",
"r  c #4C3742",
"t  c #4E3840",
"y  c #4F3840",
"u  c #503940",
"i  c #503A40",
"p  c #513A40",
"a  c #503A41",
"s  c #513B41",
"d  c #523B40",
"f  c #533B40",
"g  c #533C40",
"h  c #543D40",
"j  c #543D41",
"k  c #533E47",
"l  c #533F47",
"z  c #543E44",
"x  c #543F46",
"c  c #564045",
"v  c #554046",
"b  c #554047",
"n  c #564148",
"m  c #584348",
"M  c #594449",
"N  c #59444A",
"B  c #59454B",
"V  c #5A474D",
"C  c #5C4950",
"Z  c #5C4A51",
"A  c #5D4B51",
"S  c #5E4B51",
"D  c #5F4C52",
"F  c #614843",
"G  c #634A44",
"H  c #644A44",
"J  c #684F46",
"K  c #675045",
"L  c #675046",
"P  c #6C5146",
"I  c #6D5346",
"U  c #6F564B",
"Y  c #705648",
"T  c #735848",
"R  c #735948",
"E  c #735A48",
"W  c #745948",
"Q  c #755A48",
"!  c #765B48",
"~  c #645259",
"^  c #67575F",
"/  c #7D604A",
"(  c #7E644E",
")  c #7F654E",
"_  c #6A5B63",
"`  c #6C5D65",
"'  c #6E6068",
"]  c #73676F",
"[  c #736770",
"{  c #746870",
"}  c #756A72",
"|  c #776B74",
" . c #786D76",
".. c #796E77",
"X. c #7A7079",
"o. c #7B727B",
"O. c #7C727B",
"+. c #7D747E",
"@. c #7E757F",
"#. c #87572D",
"$. c #8F5E2E",
"%. c #9A642D",
"&. c #83674C",
"*. c #876B4D",
"=. c #886B4C",
"-. c #8A6D4D",
";. c #946F45",
":. c #9D7442",
">. c #A77F48",
",. c #DC9D37",
"<. c #E6A63A",
"1. c #9D8052",
"2. c #A7824D",
"3. c #B08847",
"4. c #A48454",
"5. c #A58654",
"6. c #A58557",
"7. c #A68657",
"8. c #AB8A55",
"9. c #B18F57",
"0. c #B99250",
"q. c #BB9959",
"w. c #CBA65D",
"e. c #CAAA5D",
"r. c #CBAA5D",
"t. c #C8A95E",
"y. c #D2AD5F",
"u. c #D4AE5E",
"i. c #F1B342",
"p. c #D3B360",
"a. c #D7B260",
"s. c #D9B460",
"d. c #FFD15B",
"f. c #E8C966",
"g. c #E9CC66",
"h. c #F0C865",
"j. c #F1C866",
"k. c #F1C966",
"l. c #F2CC68",
"z. c #F4CF69",
"x. c #FFD661",
"c. c #FFDB64",
"v. c #F2D368",
"b. c #F5D368",
"n. c #F4D369",
"m. c #FDD369",
"M. c #FED369",
"N. c #FDD469",
"B. c #FFD568",
"V. c #FFD469",
"C. c #FFD569",
"Z. c #FFD669",
"A. c #FFD56A",
"S. c #FFD66A",
"D. c #FFD76A",
"F. c #FFD86A",
"G. c #FFD96A",
"H. c #FFD86B",
"J. c #FFDA6A",
"K. c #FFDB6B",
"L. c #FFDC6B",
"P. c #FFDD6B",
"I. c #FFDE6B",
"U. c #FFD86C",
"Y. c #FFDC6D",
"T. c #FFDF6C",
"R. c #FFE06C",
"E. c #FFE16C",
"W. c #FFE36D",
"Q. c #FFE36E",
"!. c #FFE26F",
"~. c #FFE76D",
"^. c #FFEB6F",
"/. c #FFE270",
"(. c #FFF170",
"). c #817A84",
"_. c #827A84",
"`. c #8B8792",
"'. c #8C8893",
"]. c #8D8995",
"[. c #8D8A95",
"{. c #8F8C97",
"}. c #9695A1",
"|. c #9B9CA9",
" X c #9C9EAB",
".X c #9EA0AD",
"XX c #9EA0AE",
"oX c #A0A2AF",
"OX c #A1A4B1",
"+X c #A2A6B3",
"@X c #A3A7B5",
"#X c #A5A9B7",
"$X c #A6ABB9",
"%X c #A7ACBA",
/* pixels */
"%X%X%X%X%X%X%X%X%X%X%X%X%X%X%X%X%X%X%X%X%X%X%X%X%X%X%X%X%X%X%X%X",
"%X%X%X%X%X%X%X%X%X%X%X%X%X+.d d d d +.%X%X%X%X%X%X%X%X%X%X%X%X%X",
"%X%X%X%X%X%X%X%X%X%X%X%XXX .d 3 < d | OX%X%X%X%X%X%X%X%X%X%X%X%X",
"%X%X%X%X%X%X%X%X%X%X%X%X[ n d g j d m ] %X%X%X%X%X%X%X%X%X%X%X%X",
"%X%X%X%X%X%X%X%X%X%X%X%X^ < ! t.t.! e ^ %X%X%X%X%X%X%X%X%X%X%X%X",
"%X%X%X%X%X%X%X%X%X%X%X%X` & -.^.~.-.+ ' %X%X%X%X%X%X%X%X%X%X%X%X",
"%X%X%X%X%X%X%X%X%X%X@X{.~ + ( G.G.( + ~ [.@X%X%X%X%X%X%X%X%X%X%X",
"%X%X%X%X%X%X%X%X%X%X XA d - ;.G.G.;.- g A |.%X%X%X%X%X%X%X%X%X%X",
"%X%X%X%X%X%X%X%X%X%X XV e #.,.K.U.,.#.r C  X%X%X%X%X%X%X%X%X%X%X",
"%X%X%X%X%X%X%X%X%X%X XC 3 >.d.C.C.d.>.< C  X%X%X%X%X%X%X%X%X%X%X",
"%Xo. . . . . . . . .{ n . 6.!.G.C./.6.+ x {  . . . . . . . .o.%X",
"%Xd g 3 & & & & & & + & W t.G.C.G.G.t.W & + & & & & & & 3 g q %X",
"%Xn d F R R R R Y W I Q a.R.C.C.C.C.!.a.W I W T W Y R R F 8 b %X",
"%Xl < 4.n.l.j.j.j.j.j.j.B.G.C.C.C.C.G.C.j.h.h.h.j.j.l.n.6.3 b %X",
"%Xl = 9.^.!.!.P.P.P.!.P.G.M.C.C.C.C.M.C.T.T.T.T.T.T.~.^.9.= l %X",
"%Xd r Y 3.i.c.K.C.C.B.C.C.C.C.C.C.C.C.C.C.C.M.C.K.c.i.3.U 8 y %X",
"%X{ m = 0 %.0.z.!.C.C.C.C.C.C.C.C.C.C.C.C.C.M.!.l.0.%.0 w b } %X",
"%X#Xo.B d 3 6 8.v.P.G.C.C.C.C.C.C.C.C.C.C.C.T.v.8.8 1 y B o.#X%X",
"%X%X#X@.l r 3 6 5.b.C.C.C.C.C.C.C.C.C.C.U.U.b.5.8 3 y b @.#X%X%X",
"%X%X%XOX_.q q e r >.C.G.C.C.C.C.C.C.C.C.K.N.>.q = d g ).OX%X%X%X",
"%X%X%X%X+X).V g   / N.T.C.C.C.C.C.C.C.C.T.M.! O j B _.OX%X%X%X%X",
"%X%X%X%X%XOXC g O ( m.T.C.C.C.C.C.C.C.C.G.M.( O q A OX%X%X%X%X%X",
"%X%X%X%X%X|.Z y 9 :.m.K.C.C.C.C.C.C.C.C.T.M.:.9 g A  X%X%X%X%X%X",
"%X%X%X%X%X.XZ e $.<.C.U.C.G.P.G.P.G.G.C.U.C.<.$.e Z .X%X%X%X%X%X",
"%X%X%X%X%X|.C < 2.d.K.U.C.C.B.C.C.C.C.G.C.G.d.2.= C |.%X%X%X%X%X",
"%X%X%X%X}._ l + 6.!.G.C.!.w.&.=.=.&.w.R.U.G./.6.+ x _ }.%X%X%X%X",
"%X%X%X%X`.6 q *.p.G.P.R.t.Y + @ # . Y t.!.G.G.p.*.q 8 `.%X%X%X%X",
"%X%X%X%X[.6 q s.(.!.P.y.I @ x ` ` b + I y.P.!.(.s.j 3 [.%X%X%X%X",
"%X%X%X%X[.6 j q.g.f.y.L = b ] %X$X{ b = J y.f.g.q.g 6 [.%X%X%X%X",
"%X%X%X%X[.d q F L J G 8 y  .OX%X%XoX .8 d F L L F d d [.%X%X%X%X",
"%X%X%X%X`.d d < = = = d O..X%X%X%X%X.XO.d = & = < d d '.%X%X%X%X",
"%X%X%X%X%X%X%X%X%X%X%X%X%X%X%X%X%X%X%X%X%X%X%X%X%X%X%X%X%X%X%X%X"
};
