/* XPM */
static char *_a6be61145a1456ee18d3fe650a797a5Fn2ZGbho0lDxywq9[] = {
/* columns rows colors chars-per-pixel */
"32 32 180 2 ",
"   c #281638",
".  c #2D1938",
"X  c #351F3A",
"o  c #3C243B",
"O  c #3D283C",
"+  c #432C3D",
"@  c #57373F",
"#  c #5B3A3F",
"$  c #4F3940",
"%  c #453149",
"&  c #4E3A4C",
"*  c #49354A",
"=  c #553E41",
"-  c #503C4C",
";  c #594141",
":  c #52514F",
">  c #5F574C",
",  c #4B4E51",
"<  c #4D5154",
"1  c #545452",
"2  c #595650",
"3  c #5C5954",
"4  c #545759",
"5  c #565A5D",
"6  c #5B5C5C",
"7  c #614D4F",
"8  c #6A4541",
"9  c #744B42",
"0  c #7D5242",
"q  c #7B5748",
"w  c #7E5C4B",
"e  c #675752",
"r  c #665D57",
"t  c #6A5953",
"y  c #625F5E",
"u  c #745C52",
"i  c #6A6157",
"p  c #63615E",
"a  c #6B625C",
"s  c #746057",
"d  c #72665D",
"f  c #75695B",
"g  c #7D6E5E",
"h  c #7C6953",
"j  c #535C61",
"k  c #5B5E61",
"l  c #605F60",
"z  c #5D6164",
"x  c #626262",
"c  c #6A6663",
"v  c #666967",
"b  c #6E6964",
"n  c #64676A",
"m  c #65696D",
"M  c #696A6C",
"N  c #746D65",
"B  c #796B63",
"V  c #726E6A",
"C  c #7C7166",
"Z  c #76736D",
"A  c #7C7269",
"S  c #6E757F",
"D  c #717174",
"F  c #74767A",
"G  c #89543E",
"H  c #895A3E",
"J  c #94583E",
"K  c #98593D",
"L  c #91553A",
"P  c #865642",
"I  c #8A5740",
"U  c #865A46",
"Y  c #8C5C44",
"T  c #8B5E49",
"R  c #835B49",
"E  c #925C43",
"W  c #9A5F47",
"Q  c #8D624D",
"!  c #956247",
"~  c #9E6147",
"^  c #906049",
"/  c #9C6048",
"(  c #866D5A",
")  c #91705C",
"_  c #A06246",
"`  c #A26449",
"'  c #816F61",
"]  c #827363",
"[  c #867865",
"{  c #83756A",
"}  c #877A6D",
"|  c #897A6B",
" . c #8C7664",
".. c #977D64",
"X. c #997E62",
"o. c #917D6B",
"O. c #8B7F74",
"+. c #9C8166",
"@. c #94826E",
"#. c #9C836B",
"$. c #8F8173",
"%. c #958372",
"&. c #9B8672",
"*. c #9D8875",
"=. c #9C8B7C",
"-. c #90857D",
";. c #A28267",
":. c #A1866B",
">. c #A3896E",
",. c #A98A6C",
"<. c #B0896B",
"1. c #A48B74",
"2. c #AA8F76",
"3. c #A18C7A",
"4. c #A5907D",
"5. c #A8937B",
"6. c #7A7E85",
"7. c #7E818A",
"8. c #838286",
"9. c #8A8787",
"0. c #8F8885",
"q. c #818389",
"w. c #888A8F",
"e. c #9C8E82",
"r. c #908D8E",
"t. c #9E938B",
"y. c #868A92",
"u. c #898C95",
"i. c #888D99",
"p. c #8C919C",
"a. c #949296",
"s. c #9F9591",
"d. c #9F9892",
"f. c #99989E",
"g. c #A69384",
"h. c #A4958A",
"j. c #A89689",
"k. c #A7988C",
"l. c #AA998C",
"z. c #A09691",
"x. c #A39A95",
"c. c #A99C94",
"v. c #A39D9D",
"b. c #A99E99",
"n. c #ABA09B",
"m. c #9296A0",
"M. c #9699A3",
"N. c #999BA6",
"B. c #9A9EA9",
"V. c #969DAC",
"C. c #9CA0AC",
"Z. c #9BA5B4",
"A. c #A4A1A6",
"S. c #A5A4AB",
"D. c #AEA9AA",
"F. c #AAA6A8",
"G. c #A3A6B2",
"H. c #A5A9B5",
"J. c #ABACB4",
"K. c #A7ACBA",
"L. c #A9AEBC",
"P. c #B0AFB6",
"I. c #ABB0BF",
"U. c #B2B2BA",
"Y. c #A5AFC3",
"T. c #A8AFC0",
"R. c #A9B0C2",
"E. c #A9B2C6",
"W. c #A9B2C5",
"Q. c #AAB2C4",
"!. c #A9B4C9",
"~. c #AAB5CA",
"^. c #B1B6C5",
"/. c #B0B5C3",
"(. c #B2B8C9",
"). c #B3BACD",
"_. c #AAB7D0",
"`. c #ACB9D1",
"'. c #B4BDD1",
"]. c #C3CDE6",
/* pixels */
"K.K.K.K.K.K.K.K.K.K.K.K.K.K.K.K.K.K.K.K.K.K.K.K.K.K.K.K.K.K.K.K.",
"K.K.K.K.K.K.K.K.K.K.K.K.K.K.K.K.K.K.u.O.I._.S.F.K.K.K.K.K.K.K.K.",
"K.K.S.S.K.K.K.K.K.K.K.K.K.K.K.L.L.K.i.r n.P.G.3.M.K.f.C.I.K.K.I.",
"K.e.#.=.K.K.K.K.K.f.h.e.v.T.K.Y.U.9.M 5 a a | %.M 7.u.C.I.K.K.K.",
"F O.#.=.K.E.J.K.K.c #.1.x.!.R.K.(.w.4 6 3 f +.t.Y.I.(./.Z.K.K.I.",
"6 C 1.+.x.`.A.v.K.4 x &.g.b.D.Q.).q.> %.x.l.) t.~.K.K.K.K.K.I.(.",
"z c *.#.*.e.#.D.f.6 5 5 f ( | -.D A *.J.`.R.=.s.E.K.K.R.R.^.I.8.",
"x 6 { 1.#...*.Q.Z.z 2 y.a.V < 1 i +.b.~.K.L.K.h.K.!.K.S.F.l.A : ",
"v 6 c &.&.+.t.E.Q.V.i 1.P.'.6., | :.h.E.K.K.K.=.t.n.=.>.@.i 6 M.",
"w.k 5 | 1.@.*.K.R.^.7.h :.L.A.1 { #.x.!.K.R.H.s.K.S.:.@.6 k N.K.",
"H.n k x o.1...z.E.I.E.9...#.4.p { :.e.R.E.H.=.t.`.n.V 4 : 4 F K.",
"K.w.l 5 x *.>...A.E.R.I.%.#.,.c l &.#.=.t.&.+.4.=.f < 4 7.C.C.K.",
"K.H.n l 6 A 1.#.=.K.E.Y.D.| C z A } %.,.:.>.%.N 3 4 k C.)././.K.",
"K.K.u.l k 5 A 1.+.=.K.`.E.$.4 x 5.%.v Z Z Z z j j 3 a.'.K.K.K.K.",
"K.K.K.x x y 5 N *.+.=.A.b.@.z r ) ( t e t t i s s a 3.K.E.K.K.K.",
"K.K.K.m.6 1 5 u ^ Q ^ H Y R q Y G G E Y H E J K ~ v +.t.H.E.I.E.",
"K.H.8.h.V.i.z q L I P P G E E Y E ! ! ! Y P U E ~ , ' 1.1.l.j.l.",
"K.i.b :.h.'.K.R P U Y Y U U U Y 8 @ # # 0 Y W w { i.0.' B f d r ",
"K.B.x &.#.e.b.N 3 U E / ; + + ; O . X   9 Y ~ ' Z.]./.j < 5 c N ",
"K.K.7.N 1.#...O.k U E W = + o = + o o X 9 Y W  .l.B.F 6 { o.*.U.",
"K.K.H.k A 1.2.*.l U E W = + + ; + o o o 9 Y ` ' l : d #.>.#...t.",
"K.K.K.q.6 N A b l T E ~ ; + + ; + o o X 9 Y ` y z  .+.=.=.*.z.v.",
"K.K.K.G.l 6 4 k l T E W = + O ; + o o X 9 Y ` d [ l.v.K.K.K.T.E.",
"K.K.K.K.y.6 6 5 l U E ` ; + O = + o o o 9 Y ! ( d.E.!.L.K.E.L.K.",
"K.K.K.S.t.Z.K.6.3 U E W = $ @ = + o o X 9 Y _ ;.K._.K.K.K.A.K.R.",
"K.K.A.*.*.h./.`.b 0 E W = $ = = + o o X 9 Y ` <.t.H.R.R.`.d.@.v.",
"K.K.e.#.%...*.x.| U E / = + + = + o o X 9 Y ~ o.@.1.c.n.n.g.:.:.",
"K.K.e.&.&.*.+.#.1.T E W = % + # + o o o 9 Y ` a z [ g g g C { A ",
"K.K.S.=.*.*.1.1.>.T Y W ; + + ; + o o o 9 Y ~ d j 5 5 5 4 5 5 5 ",
"K.K.K.G.b N %.} b U E W ; + O ; + o o X 9 ^ ` f z z p p p l D D ",
"K.K.K.K.C.m v n x U E W > & & 7 & % * % 9 ^ ~ N z M 7.u.p.f.K.K.",
"K.K.K.K.K.K.K.K.K.K.K.K.K.K.K.K.K.K.K.K.K.K.K.K.K.I.K.K.K.K.K.K."
};
