/* XPM */
static char *f3c8c1df656e4bebb612e3d8982d4508eP5D1JKFehNCjL3w[] = {
/* columns rows colors chars-per-pixel */
"32 32 51 1 ",
"  c black",
". c gray1",
"X c #0C0C0B",
"o c #17160F",
"O c #1E1616",
"+ c #281800",
"@ c #32280D",
"# c #282315",
"$ c #322C25",
"% c #383626",
"& c #363136",
"* c #4C0F0F",
"= c #47120D",
"- c #660800",
"; c #573600",
": c #703D07",
"> c #732612",
", c #48342C",
"< c #49352C",
"1 c #49352D",
"2 c #4C2D32",
"3 c #514217",
"4 c #213B45",
"5 c #33636B",
"6 c #665646",
"7 c #685747",
"8 c #695848",
"9 c #891B1B",
"0 c #AB2C0A",
"q c #A52121",
"w c #A83D3B",
"e c #94520A",
"r c #E76408",
"t c #90755B",
"y c #90765C",
"u c #FFBB00",
"i c #4F828A",
"p c gray52",
"a c #989797",
"s c #97969D",
"d c #A99782",
"f c #BFB39E",
"g c #A4A9B6",
"h c #A4A9B7",
"j c #A5A9B7",
"k c #A5AAB8",
"l c #A6ABB9",
"z c #A7ABBA",
"x c #A7ACBA",
"c c #C0B49F",
"v c #E8F2FA",
/* pixels */
"xxxxxxxxxxxxxxxxxxxxxxxxxxxxxxxx",
"xxxxxxxxxxxxx<<<<<<<xxxxxxxxxxxx",
"xxxxxxxxxxx<88yyyyy88<xxxxxxxxxx",
"xxxxxxxxxx88yyyddddcy88<xxxxxxxx",
"xxxxxxxxl9*yyddycycc<cy8<xxxxxxx",
"xxxxxxxx9qyydcddyccy*ydy<xxxxxxx",
"xxxxxxxj*98cc8*yycc<9<cd8<xxxxxx",
"xxxxxxx<8*c8*9ydccy9q*<d8<xxxxxx",
"xxxxxxx<yycy9ycyyy<9q9<dy<xxxxxx",
"xxxxxxx<ycy*ccdydyy*<<ddy<xxxxxx",
"xxxxxxx<ycccddyddyyycccdy<xxxxxx",
"xxxxxxx 8yccccc888cddddy8 xxxxxx",
"xxxxxxx 8<8&O&ccyccOO&8<8 xxxxxx",
"xxxxxx y <8Opp$yyy$&&O8< llxxxxx",
"xxxxxx y <yOaaOydyO&&Oy< xxxxxxx",
"xxxxxxx  8y&OO6ddd6OO&y8 lxxxxxx",
"xxxxxxxx <yyqqyc&cyqqyy< xxxxxxx",
"xxxxxxl+  <yccc&O&cccy<  +xxxxxx",
"xxxxxxi554<<<dcdcdcd<<,455ixxxxx",
"xxxlliw=4>=4=88yyy88=4=>4=wixxxx",
"xxxxxw>5:;;+==2<<<<==+;;:5>wxxxx",
"xxxll>ie<<<8++=4=4=++8<<<ei>xxxx",
"xxxlxle<yc8ydy:+++:ydy8cy<ejxxxx",
"xxxxxx<<ccc<cc+v--+cc<fff<<xxxxx",
"xxxxxxx 8t8 od;0u-;do 8y8 xxlxxx",
"xxxxxxxx   ##o+r00+o##   xxxlxxx",
"xxxxxxlxxxXoo@:+++:@oosllxxxxxxx",
"xxxxxxxxxx ##o:4=4:o# jxllxxxxxx",
"xxxxxxxxxx%@@##:5>5:@ xxxxxxxxxx",
"xxxxxxxxxxx%@3@3:iwe3lxxxxxxxxxx",
"xxxxxxxxxxxl 7y3eee lxxxxxxxxxxx",
"xxxxxxxxxxxxx yt xxlxxxxxxxxxxxx"
};
