/* XPM */
static char *_3725e57beb6440fff561f86d0ad562csDVQipWfeX5hqxeZ[] = {
/* columns rows colors chars-per-pixel */
"32 32 41 1 ",
"  c black",
". c #010101",
"X c #17160F",
"o c #111111",
"O c #1E1616",
"+ c #281800",
"@ c #271717",
"# c #32280D",
"$ c #282315",
"% c #2A201E",
"& c #363136",
"* c #4C0F0F",
"= c #47120D",
"- c #573600",
"; c #703D07",
": c #732612",
"> c #48342C",
", c #49352C",
"< c #49352D",
"1 c #514217",
"2 c #213B45",
"3 c #33636B",
"4 c #5E5A4F",
"5 c #675747",
"6 c #685648",
"7 c #695848",
"8 c #891B1B",
"9 c #A52121",
"0 c #A83D3B",
"q c #94520A",
"w c #8E735A",
"e c #8F745A",
"r c #90765C",
"t c #C39F38",
"y c #4F828A",
"u c #91889D",
"i c #A99782",
"p c #99A1AD",
"a c #A6ABB9",
"s c #A7ACBA",
"d c #C0B49F",
/* pixels */
"ssssssssssssssssssssssssssssssss",
"sssssssssss,,,,,,,,,ssssssssssss",
"sssssssss,,77rrrrr77,,ssssssssss",
"ssssssss,7ddrrrdddrrr7*sssssssss",
"sssssss,7idr*8*,drdirr*,ssssssss",
"sssssss,rdd*89,dr7rdd*r,ssssssss",
"ssssss,7idr898,dr,,rirr7,sssssss",
"ssssss,rdr,8*,iddr77irr7,sssssss",
"ssssss,rddr*,idiirdri*r7,sssssss",
"ssssss 7idd,dddrdrdidr*7 sssssss",
"ssssss ,ddrrrrrrrridrr*7 sssssss",
"sssssss rrr%%,7rr7,7r77* sssssss",
"sssssss rr%&&%7rr7,777*7 sssssss",
"sssssss rr%&&%7rr7,*8777 sssssss",
"sssssss rdr%%%rdd7o**77ossssssss",
"sssssss O7d999d7d7o*,77 ssssssss",
"sssssss ,O7rrrr7d7o,77osssssssss",
"ssssssss rdiid7dr,o77 ssssssssss",
"ssssssss 7rddddr,-;;qussssssssss",
"sssssssss  ,,,,,+23=0qssssssssss",
"ssssss@@@@@ @@@+23=y:0ssssssssss",
"sssss,dddr7,,,,6+3:0y:ssssssssss",
"sssss,d77rd457e,,+y:0qssssssssss",
"ssssss  77rrdd,8*,;;qossssssssss",
"ssssssss   7rr,89  XXXXsssssssss",
"sssssssssss      $$$$##sssssssss",
"sssssssssss;2= #$XXXXXXsssssssss",
"sssssssssss;3:  #$$#$##sssssssss",
"ssssssssssssqy0q ####1 sssssssss",
"sssssssssss>tqq@ 1e1#1 sssssssss",
"sssssssssss>>>@@  d17 ssssssssss",
"ssssssssssssspss 7rd7 ssssssssss"
};
