/* XPM */
static char *b8fe6af29dac42a7b127cb5ac9b2f8c88AjGX4RDp1457NL1[] = {
/* columns rows colors chars-per-pixel */
"32 32 50 1 ",
"  c black",
". c #000101",
"X c #030203",
"o c #070507",
"O c #17160F",
"+ c #0A1B17",
"@ c #111111",
"# c #1E1616",
"$ c #281800",
"% c #271717",
"& c #32280D",
"* c #282315",
"= c #2A201E",
"- c #4C0F0F",
"; c #47120D",
": c #573600",
"> c #703D07",
", c #732612",
"< c #48342C",
"1 c #49352C",
"2 c #49352D",
"3 c #514217",
"4 c #213B45",
"5 c #33636B",
"6 c #5E5A4F",
"7 c #675747",
"8 c #685747",
"9 c #685648",
"0 c #695848",
"q c #891B1B",
"w c #A52121",
"e c #A83D3B",
"r c #94520A",
"t c #8E735A",
"y c #8F745A",
"u c #90755B",
"i c #90765C",
"p c #C39F38",
"a c #4F828A",
"s c gray52",
"d c #91889D",
"f c #989797",
"g c #A99782",
"h c #BFB29D",
"j c #8C96A0",
"k c #9099A4",
"l c #A3A9B7",
"z c #A6ABB9",
"x c #A7ACBA",
"c c #C0B49F",
/* pixels */
"xxxxxxxxxxxxxxxxxxxxxxxxxxxxxxxx",
"xxxxxxxxxxx111111111xxxxxxxxxxxx",
"xxxxxxxxx1100iiiui0011xxxxxxxxxx",
"xxxxxxxx10iiccgiggcci01xxxxxxxxx",
"xxxxxxx10iicciccci-0cc01xxxxxxxx",
"xxxxxxx1iicci0iigciq-0i1xxxxxxxx",
"xxxxxx10i1ci11icigc0qic01xxxxxxx",
"xxxxxx111gc11icg1icci-ii1xxxxxxx",
"xxxxxx11iggiicc1iiiiicci1xxxxxxx",
"xxxxxx 0iicgi1gicccccic0 xxxxxxx",
"xxxxxx 00iiciiccgiiigcg1 xxxxxxx",
"xxxxxx 000i010ii01==iii xxxxxxxx",
"xxxxxx 0000@10ii0=sf=ii xxxxxxxx",
"xxxxxx 000@i10ii0=sf=ii xxxxxxxx",
"xxxxxxx@00@i@0cci===ici xxxxxxxx",
"xxxxxxx 000@@0c0cwwwc0# xxxxxxxx",
"xxxxxxxx@000@0c0iiii0#1 xxxxxxxx",
"xxxxxxxxx 00@1ic0cggci zxxxxxxxx",
"xxxxxxxxxdr>>:2icccci0 xxxxxxxxx",
"xxxxxxxxxre;54$21111  xxxxxxxxxx",
"xxxxxxxxxe,a;54$%%% %%%%%zxxxxxx",
"xxxxxxxxx,ae,5$011110iccc1xxxxxx",
"xxxxxxxxxre,a$$1t076ci00c1xxxxxx",
"xxxxxxxxx@r>>1-q1ccii00  xxxxxxx",
"xxxxxxxkOOOO  wq1ii0   xxxxxxxxx",
"xxxxxxxx&&****      xxxxxxxxxxxx",
"xxxxxxxxOOO@OO*& ;4>xxxxxxxxxxxx",
"xxxxxxxx&&*&**&+ ,5>xxxxxxxxxxxx",
"xxxxxxxx 3&&&& rearxxxxxxxxxxxxx",
"xxxxxxxx 3&3y3o%rrp1xxxxxxxxxxxx",
"xxxxxxxxx 93h  %%111xxxxxxxxxxxx",
"xxxxxxxxx 0ci0 xljxxxxxxxxxxxxxx"
};
