/* XPM */
static char *_fcf3294b0d7403ff418fdbb73c67c7c8t3MiOSdUgAjR09O[] = {
/* columns rows colors chars-per-pixel */
"32 32 33 1 ",
"  c black",
". c #17160F",
"X c #281800",
"o c #32280D",
"O c #282315",
"+ c #4C0F0F",
"@ c #47120D",
"# c #573600",
"$ c #703D07",
"% c #732612",
"& c #462F2A",
"* c #48342C",
"= c #49352C",
"- c #514217",
"; c #213B45",
": c #33636B",
"> c #695848",
", c #706155",
"< c #891B1B",
"1 c #A52121",
"2 c #A83D3B",
"3 c #94520A",
"4 c #90765C",
"5 c #4F828A",
"6 c #A99782",
"7 c #BFB29D",
"8 c #BFB39E",
"9 c #9FA2B1",
"0 c #A3A5AD",
"q c #A5A9B7",
"w c #A6ABB9",
"e c #A7ACBA",
"r c #C0B49F",
/* pixels */
"eeeeeeeeeeeeeeeeeeeeeeeeeeeeeeee",
"eeeeeeeeeeee=========eeeeeeeeeee",
"eeeeeeeeee==4r44rr444=weeeeeeeee",
"eeeeeeeee=4rrrr466rr>=0eeeeeeeee",
"eeeeeeee=>rr6446rr==4>>eeeeeeeee",
"eeeeeeee=rr64=>4r=++=64>weeeeeee",
"eeeeeee=>r64==4r=+<+=r4,eweeeeee",
"eeeeeee=>r4>=4r4=+<<+==4>qeeeeee",
"eeeeeee=>64>4r64=+<<+=46>=eeeeee",
"eeeeeee=>6r4r4r=+<+=+=44>=eeeeee",
"eeeeeee 4rrrr66r=+=r=r4>> eeeeee",
"eeeeeee >46r6r4rr==r444>> eeeeee",
"eeeeeee >44r44rr6rr6444>> eeeeee",
"eeeeeee >>464rrr4r64>>>>> eeeeee",
"eeeeeee =>4444>644444>>>= eeeeee",
"eeeeeeee >>44>>4>>>>4>>> eeeeeee",
"eeeeeeee >>>44>44>4>>>>> eeeeeee",
"eeeeeewwe =>>444>4>>>>= ee9eeeee",
"eeeeew35:;#==>>>>>>>>=#;::3eeeee",
"eeeee=32%@;#XX======X#;@23==eeee",
"eeeee==3%:%%@;XXXXXX;@%:$>==eeee",
"eeeew==43$$%%:%%@:@%:%$$84==eeee",
"eeeee=+<+==$$$##%:%#$$==+<+=eeee",
"eeeee <1<  =====###==== <1< eeee",
"eeeeee   =..44>====>>4.o   eeeee",
"eeeeeeeeeeoo..........o.wweeeeee",
"eeeeeeeeee..oOOOOOOOOo.wweeeeeee",
"eeeeeeeeee o.......... eeeeeeeee",
"eeeeeeeeeee ooOoOOoO-eeeeeeeeeee",
"eeeeeeeeeeee -8oo - eeeeeeeeeeee",
"eeeeeeeeeeeee 8-& eweeeeeeeeeeee",
"eeeeeeeeeeeee >== eeeeeeeeeeeeee"
};
