/* XPM */
static char *result[] = {
/* columns rows colors chars-per-pixel */
"32 32 18 1 ",
"  c black",
". c #180F01",
"X c #352102",
"o c #1B2F36",
"O c #59330A",
"+ c #443B24",
"@ c #615433",
"# c #213A42",
"$ c #404545",
"% c #61666B",
"& c #804910",
"* c #9A6A10",
"= c #9D8863",
"- c #949CA1",
"; c #A6ABB9",
": c #A7ACBA",
"> c #C4C7D4",
", c #E8F2FA",
/* pixels */
"::::::::::::::::::::::::::::::::",
"::::::::::::$%%%%%$:::::::::::::",
"::::::::::%->,,,,,>%$:::::::::::",
"::::::::%->,,,,,,,,,>%$:::::::::",
":::::::$-,,,,,,,,,,,,>%$::::::::",
":::::::%>,,,,,,,,,,,,>-$::::::::",
"::::::$-,,,,,,,,,,,,,>>%$:::::::",
"::::::$>,,,,,,,,,,,,,>>-$:::::::",
"::::::%>>,,,,,,,,,,,>>>-$:::::::",
"::::::%--,,>>,,,,,>>>>--$:::::::",
"::::::$->,,,>>,,,->,,>>-$::;::::",
":::::: %-,,>-%>,>%->>>-% :::::::",
":::::: $%$  $->>>-$  $%$ :::::::",
":::::: $%    ->>>-    %$ :::::::",
":::::::$-$   >>>>>   $-$::::::::",
"::::::: -%  $>,,,>$  %- ::::::::",
"::::::O $--%-,,,,,-%--$ O:::::::",
":::::O*&$%%->, , ,>-%%$&&O::::::",
":::::$O*O. $>-,-,->$ .O&*O::::::",
"::::$->X=O. -$-$-$- .O=*O-$:::::",
":::: $%-X*. %->->-% O*XX%$ :::::",
"::: %$   X*O.$$$$$.O&.   $$:::::",
":::$%  +  X*&&OOO&&*.$$ %$$ ::::",
":::$ $$++ $.........$,,-$%$ ::::",
":: $%,-$+      .    $%--$%$  :::",
":: $%-% + $--.o&o.$-$-,%$- ++:::",
":@ $%%- + $-,.#o#OX>$%-$%$ ++@::",
":@ %$%% +  $-,X#X&#O  $%% +++@::",
"@@+$%$ ++++  -$O##*O +   ++++@@:",
"@@+@@+++++++ --$XOO ++++++@@+@@:",
"@+:@+++:::::: %%   :::::+++@:+@:",
"+::++::::::::: - :::::::::++::+:"
};
