/* XPM */
static char *result[] = {
/* columns rows colors chars-per-pixel */
"32 32 19 1 ",
"  c black",
". c #180F01",
"X c gray8",
"o c #352102",
"O c #1B2F36",
"+ c #59330A",
"@ c #443B24",
"# c #615433",
"$ c #253F49",
"% c #404545",
"& c #7A6A40",
"* c #61666B",
"= c #804910",
"- c #9A6A10",
"; c #9D8863",
": c #949CA1",
"> c #A7ACBA",
", c #C4C7D4",
"< c #E8F2FA",
/* pixels */
">>>>>>>>>>>>>>>>>>>>>>>>>>>>>>>>",
">>>>>>>>>>>>>>>>********>>>>>>>>",
">>>>>>>>>>>>>>**,<<<<<,:**>>>>>>",
">>>>>>>>>>>>>*:,<<<<<<<<<,*>>>>>",
">>>>>>>>>>>>*:,<<<<<<<<<<<,*>>>>",
">>>>>>>>>>>*:,,<<<<<<<<<<<<*>>>>",
">>>>>>>>>>>*:,,,,<<<<<<<<<<:*>>>",
">>>>>>>>>>%::,,,,,,,<<,,<<<,*>>>",
">>>>>>>>>>%:::,,,:,<<<<<,<<, >>>",
">>>>>>>>>>%::::::*:,<<<,*<,: >>>",
">>>>>>>>>>%*:::::**:*  **,,* >>>",
">>>>>>>>>> %:::::::*    :,:%>>>>",
">>>>>>>>>>> *::***::    ,,:%>>>>",
">>>>>>>>>>> %*::***:*  :<<,*>>>>",
">>>>>>>>>>>> %%%*:%::,,<< *%>>>>",
">>>>>>>>>>>>>   %,%:,,,,,::%>>>>",
">>>>>>>>>>>>+ *% :%*::<:<:,%>>>>",
">>>>>>>>>>>+-=oo *::**%*%* >>>>>",
">>>>>>>>>>>@+-=+oX %*:*:*: >>>>>",
">>>>>>>>>@@@%o;=+.   %    >>>>>>",
">>>>>>>@@@@%:,o-=+. ....>>>>>>>>",
">>>>>>@#@@#   *o-=++++++o>>>>>>>",
">>>>>>@@@#@  % %oo.==--;-+>>>>>>",
">>>>>@@#&#@ :%    ,,,,..o>>>>>>>",
">>>>>@#&&@@ *  % %% %%%o %>>>>>>",
">>>>@#&&#@@*:*%*%<:*  =.**>>>>>>",
">>>>@#&&@@@ *:%:%:** *Oo%%>>>>>>",
">>>> #&&@@@   %*%<:*:o$ %*>>>>>>",
">>>> @#&@        *+$-$+ >>>>>>>>",
">>>>> @# >>>>>>    ++o: >>>>>>>>",
">>>>>> @>>>>>>> % >> ** >>>>>>>>",
">>>>>>> >>>>>>>>>>>>> :: >>>>>>>"
};
