/* XPM */
static char *result[] = {
/* columns rows colors chars-per-pixel */
"32 32 16 1 ",
"  c black",
". c #180F01",
"X c #352102",
"o c #59330A",
"O c #443B24",
"+ c #615433",
"@ c #404545",
"# c #7A6A40",
"$ c #61666B",
"% c #804910",
"& c #9A6A10",
"* c #9D8863",
"= c #949CA1",
"- c #A7ACBA",
"; c #C4C7D4",
": c #E8F2FA",
/* pixels */
"--------------------------------",
"-------------@$$$$$@------------",
"-----------$=;:::::;$@----------",
"---------$=;:::::::::;$@--------",
"--------@=::::::::::::;$@-------",
"--------$;::::::::::::;=@-------",
"-------@=::::::::::::::;$@------",
"-------@;::::::::::::::;=@------",
"-------$;;:::::::::::::;=@------",
"-------$=;::::::::::::;;=@------",
"-------@=;;;::::::::;;;==@------",
"------- $;;;;:::;;;;;;==$ ------",
"------- $=;;;;;;;;;;;===@ ------",
"------- @$=;;;=$$$=====@@ ------",
"------- @@@==$@=;=$$==@@@ ------",
"------- ooXXX.......XXXoo ------",
"------ooXoX...........XoXoo-----",
"-----o*&OOOOOO$;;;@OOOOO%&*o----",
"-----&O+O+#OOOOOOOOOOO++OO%&----",
"-----O+#OO+########+++OOO++O----",
"----O+##+OOO++##+++++OOO++++O---",
"---O+####+OOOO+++++OOOO++++++O--",
"---+##+###+OOOOOOOOOO+O++++++O--",
"--O##++####+OOOOOOOO+#++++++++O-",
"--+#+O####+##+OOOOO+##++++O+++O-",
"-O##O+####++###+++###+++++OO+++O",
"-O#+O######+++#######+++#++OO++O",
"-O#OO###+###+O+#####++++##+OO++O",
"-O+OO###++##+OO+###+++++##+OOOO-",
"-OOOO+#++O+++OOO++++OOO++#OO OO-",
"---O O+ O   OOO    O  -OO+O--  -",
"------O- --          ----OO-----"
};
