/* XPM */
static char *result[] = {
/* columns rows colors chars-per-pixel */
"32 32 57 1 ",
"  c #DCC696",
". c #DDC796",
"X c #DCC797",
"o c #DDC797",
"O c #DBC896",
"+ c #DBC897",
"@ c #DBC997",
"# c #DDC897",
"$ c #DCCA97",
"% c #DCCB97",
"& c #DDC898",
"* c #DCC998",
"= c #DEC998",
"- c #DDCA98",
"; c #DCCB98",
": c #DCCB99",
"> c #DDCB99",
", c #DCCB9A",
"< c #DBCC98",
"1 c #DBCC99",
"2 c #D9CD9B",
"3 c #DBCC9A",
"4 c #DDCC98",
"5 c #DCCD98",
"6 c #DDCC99",
"7 c #DCCE9B",
"8 c #D9CB9C",
"9 c #D9CC9C",
"0 c #D9CD9D",
"q c #DACC9C",
"w c #DACF9D",
"e c #DACF9E",
"r c #DFCF9C",
"t c #DED29B",
"y c #DED39B",
"u c #DED49B",
"i c #DFD09C",
"p c #DFD19C",
"a c #DFD19D",
"s c #DED29C",
"d c #DED39C",
"f c #DFD39C",
"g c #DED29D",
"h c #DFD39D",
"j c #DED39E",
"k c #DDD59D",
"l c #DED49C",
"z c #DED49D",
"x c #DFD49F",
"c c #E0D09D",
"v c #E0D19D",
"b c #E0D29E",
"n c #DFD5A0",
"m c #DCD5A2",
"M c #DCD6A2",
"N c #DDD6A3",
"B c #DDD7A3",
/* pixels */
",1:%o$=fitrtryi4 $#$#$#$#$o4vljw",
"e900008eNMmmmmMNe80000000008eNNm",
"xe800008eNMmmmmMNe80000000008eNz",
"uNe800008eNMmmmmMNe80000000008ev",
"rNNe800008eNMmmmmMNe800000000095",
"4NBNe800008eNMmmmmMNe8000000000#",
" eNBNe800008eNMmmmmMNe800000000%",
"%8eNBNe800008eNMmmmmMNe80000000*",
"o08eNBNe800008eNMmmmmMNe8000000%",
"$008eNBNe800008eNMmmmmMNe800000*",
"#0008eNBNe800008eNMmmmmMNe80000%",
"$00008eNBNe800008eNMmmmmMNe8000*",
"#000008eNBNe800008eNMmmmmMNe800%",
"$0000008eNBNe800008eNMmmmmMNe80*",
"#00000008eNBNe800008eNMmmmmMNe8%",
"$000000008eNBNe800008eNMmmmmMNeX",
".0000000008eNBNe800008eNMmmmmMN5",
"490000000008eNBNe800008eNMmmmmmg",
"ce80000000008eNBNe800008eNMmmmmd",
"dNe80000000008eNBNe800008eNMmmma",
"iMNe80000000008eNBNe800008eNMmms",
"smMNe80000000008eNBNe800008eNMma",
"immMNe80000000008eNBNe800008eNMs",
"pmmmMNe80000000008eNBNe800008eNs",
"immmmMNe80000000008eNBNe800008eh",
"smmmmmMNe80000000008eNBNe800009>",
"-NMmmmmMNe80000000008eNBNe80000$",
"OeNMmmmmMNe80000000008eNBNe8000*",
"#8eNMmmmmMNe80000000008eNBNe800<",
"<08eNMmmmmMNe80000000008eNBNe803",
"0008eNMmmmmMNe80000000008eNBNe80",
"23<*@>ladadalb5&%*%*;*;*;+6skn7q"
};
