/* XPM */
static char *result[] = {
/* columns rows colors chars-per-pixel */
"32 32 127 2 ",
"   c #010101",
".  c #0C0C0C",
"X  c #0D0E10",
"o  c #0F1111",
"O  c #131715",
"+  c #1D1B13",
"@  c #171919",
"#  c #1A1C1C",
"$  c #221F15",
"%  c #1D1F20",
"&  c #1E2020",
"*  c #222424",
"=  c #2A2A23",
"-  c #252728",
";  c #272929",
":  c #2A2C2C",
">  c #3E3B2B",
",  c #2E3131",
"<  c #323535",
"1  c #373834",
"2  c #353738",
"3  c #363939",
"4  c #3B3D3D",
"5  c #423E2F",
"6  c #4A4433",
"7  c #4C4935",
"8  c #43433B",
"9  c #524F3B",
"0  c #57523D",
"q  c #59533E",
"w  c #3D4141",
"e  c #424545",
"r  c #4E4E44",
"t  c #474B4B",
"y  c #494D4D",
"u  c #575446",
"i  c #595640",
"p  c #515248",
"a  c #4D4F50",
"s  c #4D5151",
"d  c #525555",
"f  c #575955",
"g  c #545759",
"h  c #565A5A",
"j  c #595D5E",
"k  c #635F4E",
"l  c #5F615D",
"z  c #66634B",
"x  c #6A644C",
"c  c #646253",
"v  c #666459",
"b  c #69675D",
"n  c #6E6958",
"m  c #736B53",
"M  c #74715D",
"N  c #78775D",
"B  c #7E7A5B",
"V  c #5B5F60",
"C  c #5D6161",
"Z  c #636665",
"A  c #676865",
"S  c #646768",
"D  c #666A6A",
"F  c #696D6D",
"G  c #7E7A62",
"H  c #707069",
"J  c #6C6E70",
"K  c #6D7272",
"L  c #727675",
"P  c #747778",
"I  c #75797A",
"U  c #797E7E",
"Y  c #858160",
"T  c #8C8465",
"R  c #8C8867",
"E  c #8D8969",
"W  c #938D6B",
"Q  c #9D9571",
"!  c #A09673",
"~  c #A29A75",
"^  c #AAA37B",
"/  c #7D8282",
"(  c #808686",
")  c #838788",
"_  c #868A8B",
"`  c #898E8E",
"'  c #8B8F91",
"]  c #8E9293",
"[  c #919696",
"{  c #939798",
"}  c #959A9A",
"|  c #999D9E",
" . c #B5AC83",
".. c #BAB186",
"X. c #BBB388",
"o. c #9A9EA0",
"O. c #9CA1A2",
"+. c #A1A5A6",
"@. c #A2A7A8",
"#. c #A5AAAB",
"$. c #A9AEAE",
"%. c #A9AFB0",
"&. c #ADB2B3",
"*. c #B2B7B9",
"=. c #B6BABC",
"-. c #B8BCBD",
";. c #C1BB8E",
":. c #C4BE91",
">. c #CDC294",
",. c #D5C899",
"<. c #D9CD9D",
"1. c #D7D19E",
"2. c #D9D29F",
"3. c #DCD6A2",
"4. c #BCC0C1",
"5. c #C1C5C6",
"6. c #C3C7C9",
"7. c #C5C9CA",
"8. c #C9CBCC",
"9. c #CCD1D2",
"0. c #D2D6D7",
"q. c #D6DCDD",
"w. c #D9DFE0",
"e. c #DDE1E3",
"r. c #E0E4E5",
"t. c #E7ECED",
"y. c #EDF2F3",
/* pixels */
"<.<.<.<.<.<.<.3.3.3.3.n J L H D H v k m T  .<.<.<.<.<.<.3.3.3.<.",
"<.<.<.<.<.<.<.<.3.;.5 I y.q.0.t.=.e.e.9.$./ b x Q :.<.<.<.3.3.3.",
"3.2.<.<.<.<.<.<.<.3.1 d A D | y.7.*.4.%.=.*.r.0.| A x :.<.<.3.3.",
"3.3.<.<.<.<.<.<.<.! c V d 2 A ) $.=.5.-.w.-.9.r.' e.y.A ;.<.<.3.",
"3.3.3.3.<.<.<.<.! D ] ) j d @ $ 2 e g P ' | ' $.) | 8.| - <.<.<.",
"<.3.3.3.<.<.<.<.c U y 6.P S <   % w w , : : , 2 < - 4 < 5 <.<.<.",
"<.<.3.3.3.<.,.<.k #.j V _ j e y h : , 1 < , : X @ e l J M <.<.<.",
"<.<.<.3.3.3.<.<.~ g o.S 2 @ : P P 1 y g , e V : g P | J ' <.<.<.",
"<.<.<.<.3.3.3.3.<. .= y   o * & w & 4 F w w h s g P o.y Z <.<.<.",
"<.<.<.<.<.3.3.3.<.<.5 y } D   . .   . - & # # & - P J J { <.<.<.",
"<.<.<.<.<.<.3.3.3.<.l y %.P Z a O 2 & & : o t # . $ P ) 8 <.<.<.",
"<.<.<.<.<.<.<.3.3.:.J ) { V %.t _ S < s & j & F a   0 ! <.<.<.<.",
"<.<.<.<.<.<.<.<.3.^ J ( ) Z $.d %.g s s w [ & ` g ; X.<.<.<.<.<.",
"<.<.<.<.<.<.<.<.<.W J _ | a [ d &.e h w l / 3 ' g 2 :.3.<.<.<.<.",
"<.<.<.<.<.<.<.<.<.G J ] o.d L Z &.w F , K F 4 ] d 4 <.3.3.<.<.<.",
"<.<.<.<.<.<.<.<.<.M P o.) V J L @.w / , / j t U y p 3.3.3.3.<.<.",
"<.<.<.<.<.<.<.<.<.b U $.K ( S / ] e / , / h h D w D 3.3.3.3.3.1.",
"<.<.<.<.<.<.<.<.,.f U =.h &.D L / y / , / w S w w N 3.3.3.3.3.3.",
"3.<.<.<.<.<.<.<. .y / =.s 5.j F F h K 3 / 3 I w w R 3.3.3.3.3.3.",
"3.3.<.<.<.<.<.<.Q a ) $.h 7.t ( l C C 4 K , [ h w ~ 3.3.3.3.3.3.",
"3.3.3.<.<.<.<.<.T d [ [ S 5.e [ y F C w C w } d , ..<.3.1.3.3.3.",
"3.3.3.3.<.<.<.<.M Z +.U I &.e ] w I w s g w / s 4 ,.,.1.3.3.3.3.",
"3.3.3.3.3.<.<.<.u Z =.S ` [ C ` 3 / w C w g / s r <.<.<.1.3.3.3.",
"3.3.3.3.3.3.<.<.8 j $.j @.I K ` 3 / < K w C / w z <.<.1.1.1.3.3.",
"2.3.3.3.3.3.3.>.s D O.C &.C U / y / & U w K D w m <.<.<.<.<.<.3.",
"3.3.3.3.3.3.3. .w I [ D O.t ] D h I : ) 3 / C 3 E <.<.<.<.<.<.<.",
"<.3.3.3.3.3.3.Q s ` U y O.h O.d C C 3 / < ] l , Q 3.<.<.<.<.<.<.",
"<.<.3.^ W Q 1.M K ] l C %.h #.e K d w K , } j < z z Y X.<.<.<.<.",
"<.<.2.B Y z i 9 : O.L ] O.g %.w I w g C 4 #.h * +   9 m T <.<.<.",
"<.<.<.<.3.3.X.3.z ; 3 O.{ L &.y / 3 U C y U O $ 0 k m Y ^ <.<.<.",
"<.<.<.<.1.3.3.3.3.W 5 = & g K t / & g < . $ q T ~ ..:.<.3.<.<.<.",
"<.<.<.2.,.1.3.3.3.3.1. .R z 7 6 1 > 7 z T  .,.<.<.<.<.3.3.3.<.<."
};
