/* XPM */
static char *result[] = {
/* columns rows colors chars-per-pixel */
"32 32 156 2 ",
"   c #411D3A",
".  c #1A2B4D",
"X  c #26244F",
"o  c #2E224A",
"O  c #252B4D",
"+  c #2B2C4C",
"@  c #3A2B45",
"#  c #352D4B",
"$  c #392D4B",
"%  c #252450",
"&  c #2A2D5F",
"*  c #1A356F",
"=  c #183672",
"-  c #333E6B",
";  c #4C2E48",
":  c #543147",
">  c #433750",
",  c #6C3144",
"<  c #743143",
"1  c #7C3342",
"2  c #2F457B",
"3  c #5A5152",
"4  c #5E545F",
"5  c #6C5653",
"6  c #645B57",
"7  c #68535D",
"8  c #715C53",
"9  c #6D6B50",
"0  c #525D7C",
"q  c #695E63",
"w  c #8E373E",
"e  c #9D353E",
"r  c #96393D",
"t  c #A9363C",
"y  c #B7373B",
"u  c #CC3936",
"i  c #C43738",
"p  c #C13838",
"a  c #DE3B34",
"s  c #F63D2F",
"d  c #FF3D2B",
"f  c #E43F31",
"g  c #995032",
"h  c #A14E2D",
"j  c #98682D",
"k  c #FF6D0E",
"l  c #FF7302",
"z  c #FF7C00",
"x  c #FF740A",
"c  c #FF6F18",
"v  c #FF4727",
"b  c #FF4B24",
"n  c #FF4529",
"m  c #AF5552",
"M  c #B25752",
"N  c #B55A51",
"B  c #BC6253",
"V  c #B2635A",
"C  c #836866",
"Z  c #C46A54",
"A  c #CE7555",
"S  c #D37756",
"D  c #D57A56",
"F  c #D87D55",
"G  c #FF8400",
"H  c #FF8D00",
"J  c #FF870C",
"K  c #FF9D00",
"L  c #FF9F09",
"P  c #FF8212",
"I  c #FF8810",
"U  c #FFA900",
"Y  c #FFB100",
"T  c #FFBB00",
"R  c #FFC100",
"E  c #BF9047",
"W  c #B1B842",
"Q  c #978D7C",
"!  c #998C7B",
"~  c #99917E",
"^  c #E88A58",
"/  c #F79559",
"(  c #C1A358",
")  c #FFA75D",
"_  c #B2CB54",
"`  c #005F9A",
"'  c #007087",
"]  c #00619C",
"[  c #007593",
"{  c #006DA4",
"}  c #0071A4",
"|  c #007AA7",
" . c #0079AB",
".. c #5B6783",
"X. c #358AA8",
"o. c #33A5BC",
"O. c #428AA4",
"+. c #628AA7",
"@. c #7FDEBA",
"#. c #00ADCA",
"$. c #1AA7C3",
"%. c #78AFC8",
"&. c #00C3DA",
"*. c #00CBDD",
"=. c #00CDE1",
"-. c #00D6E6",
";. c #00D9EB",
":. c #00CAF3",
">. c #00D8F9",
",. c #29CFE0",
"<. c #21D9E5",
"1. c #00EBF1",
"2. c #09E9F6",
"3. c #00EEFC",
"4. c #34E3E9",
"5. c #30ECF2",
"6. c #50EBEF",
"7. c #4AEFF1",
"8. c #75F0F5",
"9. c #7AF0F5",
"0. c #9F9782",
"q. c #96AA9E",
"w. c #BBBE9F",
"e. c #8290A8",
"r. c #8A95B4",
"t. c #8E98B6",
"y. c #9297B7",
"u. c #83AAA5",
"i. c #8BAAA3",
"p. c #B9BEA0",
"a. c #C7BD94",
"s. c #89D6BD",
"d. c #BEC6A3",
"f. c #C9C39A",
"g. c #D4C799",
"h. c #D5CD9D",
"j. c #D9CD9D",
"k. c #D7D09F",
"l. c #C9C9A3",
"z. c #DCD6A2",
"x. c #84B1C8",
"c. c #9CDDD2",
"v. c #96E6D1",
"b. c #81E9ED",
"n. c #93EEF4",
"m. c #8CF2F6",
"M. c #86F3F9",
"N. c #96F2F7",
"B. c #BFF6FD",
"V. c #C7DDE9",
"C. c #D1DEEA",
"Z. c #CAE1ED",
"A. c #DCEAF2",
"S. c #C0F3F7",
"D. c #FFFAF7",
"F. c #FFFFFF",
/* pixels */
"j.j.j.j.j.j.j.z.z.z.z.z.z.z.z.k.h.j.j.j.j.j.j.h.j.j.j.j.z.z.z.j.",
"j.j.j.j.j.j.j.j.z.z.z.k.6 6 6 6 6 6 6 5 g.j.j.j.j.j.j.j.j.z.z.z.",
"z.j.j.j.j.j.j.j.j.z.z.k.3 3 3 3 3 3 3 3 g.j.j.j.j.j.j.j.j.j.z.z.",
"z.z.j.j.j.j.j.j.j.l.l.d.8 8 8 5 5 5 5 5 w.l.l.j.j.j.j.j.j.j.j.z.",
"z.z.z.j.j.j.j.j.h.X.|  .) ) / D D F F F  . .X.j.j.j.j.j.j.j.j.j.",
"z.z.z.z.j.j.j.j.g.X.{ [ ) ) / A D F F F } { O.k.j.j.j.j.j.j.j.j.",
"j.j.z.z.z.j.w.i.i.%.%.x./ / ^ S D A Z Z $.#.o.i.i.p.j.j.j.j.j.j.",
"j.j.z.z.z.z.u. .{ A.F.F.A A A D F B m M 7.7.<. . .u.j.j.j.j.j.j.",
"j.j.j.j.z.z.q. .` C.F.D.F F F F F Z N N 6.7.,.] } q.j.j.j.j.j.j.",
"j.j.j.j...0 e.Z.V.n.8.b.B B B B B B N N =.-.-.V.Z.e.0 ..j.j.j.j.",
"j.j.j.j.2 * t.F.D.8.1.4.M N N N N N N N &.*.-.F.D.t.= 2 j.j.j.j.",
"j.j.j.j.2 * r.F.F.8.1.6.V V V V V V V B *.=.-.F.F.r.= 2 j.j.j.j.",
"j.j.j.j.- = t.F.F.9.2.5.5.5.5.5.5.5.5.5.5.2.9.F.F.r.* 2 g.j.j.j.",
"j.j.j.j.` = y.F.F.8.1.1.1.1.1.1.1.1.1.1.1.1.9.F.F.y.= 2 j.j.j.j.",
"j.j.j.j.> & ..N.n.n.M.m.m.m.m.m.m.m.m.m.m.M.N.n.N.+.& - z.j.j.j.",
"j.j.j.j.;   [ >.&.S.F.F.F.F.F.F.F.F.F.F.F.F.S.&.;.'   @ z.z.j.j.",
"j.j.j.j.$   [ >.:.B.F.F.F.F.F.F.F.F.F.F.F.F.B.:.3.[   $ z.z.z.j.",
"j.j.j.j.$ o 9 _ W v.M.m.m.m.m.m.m.m.m.m.m.M.c.E ( 8 o $ z.z.z.z.",
"z.j.j.j.$ % j R U @.3.1.1.1.1.1.1.1.1.1.1.3.s.l G h % $ z.z.z.z.",
"z.z.j.j.$ X j R Y v.3.5.5.5.5.5.5.5.5.5.5.3.s.l G g % $ z.z.z.z.",
"z.z.z.j.$ O r b n L T T T T U c P U T T I I c v b r O $ z.z.z.z.",
"z.z.z.z.$ O r b s K T T T T U l z U T T G G x d b r O $ z.z.z.z.",
"z.z.z.z.$ O w v s J K K K K H k k H K K x x c s v w O $ j.z.z.z.",
"z.z.z.z.$ + < i y s d d d d d n d d d d d n s y u < + $ j.h.z.z.",
"z.z.z.z.$ + 1 a u n v v v v v n n v n v v v n u a 1 + $ j.j.j.z.",
"z.z.z.z.~ ~ C 1 , u f f v v n v v n v n f f u , 1 C ! ! j.j.j.j.",
"j.z.z.z.z.z.0.+ . e i p v n v n n v v v p p e . + ~ j.j.j.j.j.j.",
"j.j.z.z.z.z.~ $ + t u u v v v v v v v v u u t + $ Q j.j.j.j.j.j.",
"j.j.j.z.z.z.h.a.f.7 ; ; : : : : : : : : ; ; 7 a.f.z.z.j.j.j.j.j.",
"j.j.j.j.z.z.z.z.z.4 # # # # # # # # # # # # 4 j.j.z.z.z.j.j.j.j.",
"j.j.j.j.z.z.z.z.z.q > > > > > > > > > > > > q j.j.j.z.z.z.j.j.j.",
"j.j.j.j.h.j.z.z.z.z.z.z.z.z.j.j.j.j.j.j.j.j.j.j.j.j.j.z.z.z.j.j."
};
