/* XPM */
static char *result[] = {
/* columns rows colors chars-per-pixel */
"32 32 142 2 ",
"   c #302B38",
".  c #36333E",
"X  c #38353F",
"o  c #47101E",
"O  c #441A28",
"+  c #501927",
"@  c #641620",
"#  c #6B1921",
"$  c #703833",
"%  c #773F38",
"&  c #734229",
"*  c #6B4A39",
"=  c #353443",
"-  c #3A3743",
";  c #3C3842",
":  c #3D3D4B",
">  c #2D3F5B",
",  c #403C43",
"<  c #2E415E",
"1  c #3D4051",
"2  c #325064",
"3  c #434147",
"4  c #484347",
"5  c #44424C",
"6  c #4A464A",
"7  c #4D4A4D",
"8  c #504341",
"9  c #424254",
"0  c #4A4956",
"q  c #464A59",
"w  c #4A4D5B",
"e  c #514E57",
"r  c #4E515F",
"t  c #595352",
"y  c #53545C",
"u  c #5A565A",
"i  c #5E5D5F",
"p  c #755B4C",
"a  c #645C56",
"s  c #665F58",
"d  c #68635B",
"f  c #4F5262",
"g  c #505564",
"h  c #565B6B",
"j  c #615E61",
"k  c #5D626E",
"l  c #5C6270",
"z  c #6B6660",
"x  c #6F6962",
"c  c #61646F",
"v  c #737166",
"b  c #7F7865",
"n  c #686C79",
"m  c #67707D",
"M  c #70737E",
"N  c #BC3B37",
"B  c #86563C",
"V  c #825D45",
"C  c #B75B4B",
"Z  c #847B65",
"A  c #867F68",
"S  c #C3594A",
"D  c #D16A50",
"F  c #EE6C53",
"G  c #878069",
"H  c #8D836B",
"J  c #91866E",
"K  c #8F8974",
"L  c #918A73",
"P  c #9C9276",
"I  c #9D9479",
"U  c #9F9879",
"Y  c #A19577",
"T  c #A3997A",
"R  c #AB9E7E",
"E  c #DE9366",
"W  c #E5AB72",
"Q  c #5F6C81",
"!  c #5C7589",
"~  c #6C7482",
"^  c #6E7885",
"/  c #627A8A",
"(  c #727A87",
")  c #7A7D87",
"_  c #787F8B",
"`  c #77808C",
"'  c #708195",
"]  c #7B8693",
"[  c #7F8A97",
"{  c #7D8B9F",
"}  c #848E99",
"|  c #898E98",
" . c #87939F",
".. c #AEA581",
"X. c #B0A582",
"o. c #BBB28B",
"O. c #8A95A1",
"+. c #8E9AA6",
"@. c #929DA8",
"#. c #9BA0A8",
"$. c #9BABB5",
"%. c #9EAFB9",
"&. c #A3B3BD",
"*. c #ACB5BC",
"=. c #C1B48D",
"-. c #C3B88F",
";. c #C6BC92",
":. c #CABD93",
">. c #C6C095",
",. c #CBC296",
"<. c #CDC698",
"1. c #D1C497",
"2. c #D5C79A",
"3. c #D5CA9B",
"4. c #D9CD9D",
"5. c #D7D09F",
"6. c #FFC681",
"7. c #DCD6A2",
"8. c #A5B6C0",
"9. c #A7B8C2",
"0. c #ABBCC5",
"q. c #AEBFC8",
"w. c #AFC0C9",
"e. c #B1C3CC",
"r. c #B8C4CA",
"t. c #B7C9CF",
"y. c #B6C7D0",
"u. c #B6C8D0",
"i. c #BACCD3",
"p. c #BED2D9",
"a. c #C1CED3",
"s. c #C3D5DC",
"d. c #C9D6DB",
"f. c #C4D8DF",
"g. c #CDD9DD",
"h. c #C6DAE1",
"j. c #CEDDE1",
"k. c #CFE1E5",
"l. c #CEE3E8",
"z. c #D1E2E6",
"x. c #DBEFF3",
"c. c #E0F0F5",
/* pixels */
"4.4.4.4.4.4.4.7.7.7.7.7.7.7.<...e 0 : r K 2.4.4.4.4.4.4.7.7.7.7.",
"4.4.4.4.4.4.4.I ;.7.7.7.7.>.u M j.d.s.9.7 ,.4.4.4.4.4.3.4.7.7.7.",
"7.4.4.4.4.4.x c b 7.7.7.o.i d.x.9.w.$.t 3.4.4.4.4.4.4.4.4.4.7.7.",
"7.7.4.4.4.a a.@.Z 4.7.7.Z #.x.%.w.s.k T 4.4.4.4.4.4.4.4.4.4.4.7.",
"7.7.7.4.s *.x.^ Z 3.4.7.H ( h.9.0.p.~ H 3.4.4.P 7 6 6 s 4.4.4.4.",
"7.7.7.7., d.e.y.n P =.. c e.0.0.9.w.t.c X o.P ) z.i.0.+.s 4.4.4.",
"4.4.7.7.6 &.q.q.i.l 9 0.e.w.0.0.w.9.w.w.0.9 n k.q.r.y.s.@.d :.4.",
"4.4.7.7.  $.t.0.0.u.i.q.0.0.0.0.9.w.0.0.0.i.u.9.0.e.&.h n 9 J 4.",
"4.4.4.4.U w 8.0.0.0.0.0.0.0.0.0.0.0.0.0.0.0.0.0.q.&.q Z A A ;.4.",
"4.4.4.4.4.T f i.0.0.0.0.0.0.0.0.0.0.0.0.0.0.0.0.i.f Y 4.4.4.4.4.",
"4.2.4.4.4.=.0 i.0.0.0.0.0.0.9.9.9.9.0.0.0.0.0.0.i.q =.4.4.4.4.4.",
"L u :.4.4.. 0.q.0.0.0.0.q.8.p.l.l.a.8.0.0.0.0.0.0.0.. 4.4.4.4.4.",
"w g.u A A c q.0.0.0.0.0.9.l.$.( ' %.l.0.0.0.0.0.0.e.c A A :.4.4.",
"- h.q.( | a.q.0.0.0.0.0.y.{ i $ & p O.e.q.0.0.0.0.q.y.~ | j :.4.",
", q.i.x.z.q.0.0.0.0.q.y.Q 8 6.6.W $ o / e.q.0.0.0.0.0.p.z.d.u ;.",
", y.q.8.9.0.0.0.0.0.q.q.> V 6.E C S # 2 q.q.0.0.0.0.0.0.&.c.M R ",
"R g p.e.e.0.0.0.0.0.w.w.< B W C D F @ 2 q.e.0.0.0.0.0.e.w.0.j.e ",
":.3 +.i.q.w.0.0.0.0.w.w.Q * % S F N O / w.q.0.0.0.0.w.q.q.0.j.9 ",
"7.,.7 h f %.w.0.0.0.0.0.p.! + # @ O ! p.q.0.0.0.0.w.%.g 1 [ p.5 ",
"7.7.,.J H r w.0.0.0.0.0.w.u./ 2 2 ! i.q.9.0.0.0.0.q.f L L 7 O.: ",
"7.7.7.4.4.; 0.q.0.0.0.0.0.q.e.w.e.y.q.0.0.0.0.0.0.0.; 7.7.3.7 K ",
"7.7.7.7.4.=.9 i.0.0.0.0.9.q.q.w.q.q.0.0.0.0.0.0.i.9 =.4.7.7.3.7.",
"7.7.7.7.7.Y n u.0.0.0.0.0.0.0.0.0.0.0.0.0.0.0.0.y.n Y 4.5.7.7.7.",
"7.>.H G Z ` l.9.0.0.0.0.0.0.0.0.0.0.0.0.0.0.0.0.9.z.` P 4.7.7.7.",
"7.L f  .` f.0.0.w.i.i.e.w.9.0.0.9.q.9.e.e.i.i.q.0.q.a.X 4.4.4.7.",
"7.<.v +.s.e.w.t.&.y 9 O.$.e.0.0.q.0.e.$.O.9 f &.e.w.$.4 4.4.4.4.",
"4.7.7.a ^  .[ O.g P =.  w &.w.0.0.e.&.0   =.T f &.i.&.; 4.4.4.4.",
"4.4.7.7.d 4 4 6 T 7.4.2.J g q.w.9.s.^ H 2.4.4.A h u._ a 4.4.4.4.",
"4.4.4.7.7.7.7.7.7.7.7.7..., 0.e.t.s.m A 4.4.4.A m ] a 7.4.4.4.4.",
"4.4.4.4.7.7.7.7.7.7.7.5.e } i.q.0.+.6 o.4.4.4.Z 9 z 7.7.4.4.4.4.",
"4.4.4.4.5.7.7.7.7.7.1.4 [ %.$.+.9 , :.4.4.4.4.-.Y 4.7.7.7.4.4.3.",
"4.4.4.4.3.4.7.7.7.5.4.| , = - ; X.:.4.4.4.4.4.4.4.4.4.7.7.7.4.4."
};
