/* XPM */
static char *result[] = {
/* columns rows colors chars-per-pixel */
"32 32 25 1 ",
"  c #1C192D",
". c #993045",
"X c #B94542",
"o c #D06E52",
"O c #FF8E38",
"+ c #E09F6C",
"@ c #FFBD7B",
"# c #FF72C1",
"$ c #00AEDD",
"% c #00DAF2",
"& c #D9CB9C",
"* c #D9CC9C",
"= c #D9CD9D",
"- c #DACC9C",
"; c #DACC9D",
": c #DACF9E",
"> c #DACF9F",
", c #EECA96",
"< c #DCD5A2",
"1 c #DCD6A2",
"2 c #DDD6A3",
"3 c #DDD7A3",
"4 c #FFE0B0",
"5 c #FF9DC3",
"6 c white",
/* pixels */
"-====;:21<<<<11:&=========;:21<>",
":*====&:21<<<<12:&=========&:22<",
"2:&====&:21< <<1 :&= === ===&:21",
"12:&====&:2 % < 5 : % = 5 ===&:2",
"<22:&====& $%% #55 $%% #55 ===*:",
":232:&==   $%% #55 $%% #55   ==-",
"&:232:& 55 $%% #55 $%% #55 %% ==",
"=&:232: 55# $   #   $   # $%% ==",
"==&:232: ##               $$ ===",
"===&:232:  X.,,+ X.oo+ +,,  ====",
"====&:23 O X.+++ X.oo+ +++ =====",
"=====&: @O o...+ X.ooo +.. &====",
"======& @O o.66. X.oo+ .66 :&===",
"====== @@O o.66. X.ooo .66 2:&==",
"====== @@O o...  X.ooo  .. 12:&=",
"====== @@O o.+ 6 X.ooo 6 + <12:&",
"-===== @@O o.+ . ..XXX X + <<12:",
":*==== O@O o.+ ..     .X + <<<<1",
"2:&===  @O X.+ 666.66666 + <<<<<",
"12:&= O OO X.o+         +o  <<<<",
"<12:& O@ OO X.ooooooooooo O 1<<<",
"<<12: O@@  O             OO 21<<",
"<<<12: OO@@@OOOOOOOOOOO OO &:21<",
"<<<<12:    @@@@@@@@@@@@   ==&:21",
"<<<<<12:& O@@@@@@@4@44@ &====&:2",
"1<<<<<12: O@@@@@@@@@44@ :&====*:",
":21<<<<12 O@@@@ @@@@@@@ 2:&====-",
"&:21<<<<12 OO@@    O@@@O 2:&====",
"=&:21<<<<12 O@@ ===  @@@ 32:&===",
"==&:21<<<<12   ==== O@@@ 232:&==",
"===&:21<<<<12:&===== O@@ :232:&=",
"====&:11<<<<12:;=====   =&:112:;"
};
