/* XPM */
static char *result[] = {
/* columns rows colors chars-per-pixel */
"32 32 20 1 ",
"  c #1C192D",
". c #47455B",
"X c #EF6127",
"o c #FFBD7B",
"O c #FF72C1",
"+ c #D9CB9C",
"@ c #D9CC9C",
"# c #D9CD9D",
"$ c #DACC9C",
"% c #DACC9D",
"& c #DACF9E",
"* c #DACF9F",
"= c #DCD5A2",
"- c #DCD6A2",
"; c #DDD6A3",
": c #DDD7A3",
"> c #FFE0B0",
", c #FF9DC3",
"< c #D5E2E5",
"1 c white",
/* pixels */
"$####%&;-====--&+#########%&;-=*",
"&@####+&;-====-;&+#########+&;;=",
";&+####+&;-====-;&+#########+&;-",
"-;&+####+   ====-;&+#   #####+&;",
"=;;&+### <11 ====-;& <11 #####@&",
"&;:;&+# <1111 ====- <<111 #####$",
"+&;:;&+ <1111        <<11 ######",
"#+&;:;& <1111111111111111 ######",
"##+&;: <1<<11..........111 #####",
"###+&; <1<<1.oooooooooo.11 #####",
"####+& <111 oo>>>>>>XX>o.1 #####",
"#####+ <1<1 o>XXXX>X11X>.1 +####",
"###### <111 o>X11X>X11X>.1 &+###",
"###### <111 o>X11X>X11X>.1 ;&+##",
"###### <111 o>oXXo>oXXo>.1 -;&+#",
"###### <111< o>>>>>>>>>.<1 =-;&+",
"$##### <1111<          <11 ==-;&",
"&@##### ,111111111111111, =====-",
";&+##### ,,,1111111111,, ;-=====",
"-;&+#####  ,OOOOOOOOOO  +&;-====",
"=-;&+##### ,,,OOOOOOO, ##+&;-===",
"==-;&+### ,,,,,,OOO,,,, ##+&;-==",
"===-;&+# ,,,,,,,,O,,,,,  ##+&;-=",
"====-;& O,,O,,,,,,,,,,, O ##+&;-",
"=====-;   O 1<1111111<< o ###+&;",
"-=====- >o O,,,,,,,,,,,,  ####@&",
"&;-====-  O,,,       ,,, &+####$",
"+&;-====- O,,, #### O,,O ;&+####",
"#+&;-==== O,, ##### OOO ;:;&+###",
"##+&;-=== O,O ######   +&;:;&+##",
"###+&;-== OO &+#########+&;:;&+#",
"####+&--==  -;&%#########+&--;&%"
};
